<?xml version="1.0" standalone="no"?>
<!DOCTYPE svg PUBLIC "-//W3C//DTD SVG 20010904//EN"
 "http://www.w3.org/TR/2001/REC-SVG-20010904/DTD/svg10.dtd">
<svg version="1.0" xmlns="http://www.w3.org/2000/svg"
 width="32.000000pt" height="32.000000pt" viewBox="0 0 32.000000 32.000000"
 preserveAspectRatio="xMidYMid meet">

<g transform="translate(0.000000,32.000000) scale(0.100000,-0.100000)"
fill="#000000" stroke="none">
<path d="M205 255 c0 -13 3 -21 8 -18 4 2 7 10 7 18 0 8 -3 16 -7 18 -5 3 -8
-5 -8 -18z"/>
<path d="M100 255 c0 -8 2 -15 4 -15 2 0 6 7 10 15 3 8 1 15 -4 15 -6 0 -10
-7 -10 -15z"/>
<path d="M111 213 c-11 -12 -11 -17 -2 -23 7 -4 12 -11 11 -16 -1 -5 3 -10 9
-12 14 -5 14 25 0 34 -8 5 -8 9 1 14 7 4 8 10 4 13 -5 3 -15 -2 -23 -10z"/>
<path d="M176 213 c-4 -10 -3 -19 3 -21 5 -2 7 -10 4 -18 -3 -8 0 -14 5 -14
19 0 24 20 10 37 -7 9 -11 18 -10 20 2 3 2 7 -1 9 -2 3 -8 -3 -11 -13z"/>
<path d="M145 90 c13 -12 17 -12 31 1 14 15 13 16 -15 15 -26 -1 -28 -3 -16
-16z"/>
</g>
</svg>
